<svg width="44" height="44" viewBox="0 0 44 44" fill="none" xmlns="http://www.w3.org/2000/svg">
<g clip-path="url(#clip0_109_2091)">
<path d="M14.8227 29.6449L1.91268 33.3335C1.02474 33.5871 0.175464 32.829 0.327282 31.9179L2.1178 21.1749V4.23497C2.1178 3.1118 2.56398 2.03461 3.3582 1.2404C4.1524 0.446185 5.22961 0 6.35277 0H33.88C35.0033 0 36.0807 0.446185 36.8749 1.2404C37.6691 2.03461 38.115 3.1118 38.115 4.23497V25.4099C38.115 26.5331 37.6691 27.6103 36.8749 28.4045C36.0807 29.1987 35.0033 29.6449 33.88 29.6449H14.8227Z" fill="#0D7377"/>
<path d="M32.9996 40.8574L42.0872 43.4537C42.975 43.7077 43.8245 42.9493 43.6727 42.0385L42.4282 34.5717V22.0003C42.4282 21.1667 42.0969 20.3673 41.5076 19.7779C40.9183 19.1886 40.1188 18.8574 39.2853 18.8574H18.8567C18.0232 18.8574 17.2238 19.1886 16.6344 19.7779C16.045 20.3673 15.7139 21.1667 15.7139 22.0003V37.7146C15.7139 38.5481 16.045 39.3476 16.6344 39.9369C17.2238 40.5262 18.0232 40.8574 18.8567 40.8574H32.9996Z" fill="#14FFEC"/>
</g>
<defs>
<clipPath id="clip0_109_2091">
<rect width="44" height="44" fill="white"/>
</clipPath>
</defs>
</svg>
